<svg version="1.1" xmlns="http://www.w3.org/2000/svg" xmlns:xlink="http://www.w3.org/1999/xlink" width="1238" height="786"><defs/><g><g transform="translate(-126,-30) scale(1,1)"><rect fill="#C0C0C0" stroke="none" x="143" y="247" width="191" height="147" opacity="0.2"/></g><g transform="translate(-126,-30) scale(1,1)"><rect fill="#ffffff" stroke="none" x="136" y="240" width="191" height="147"/></g><g transform="translate(-126,-30) scale(1,1)"><path fill="none" stroke="#000000" d="M 136 240 L 327 240 L 327 387 L 136 387 L 136 240 Z Z" stroke-miterlimit="10"/></g><g transform="translate(-126,-30) scale(1,1)"><path fill="none" stroke="#000000" d="M 136 265 L 327 265" stroke-miterlimit="10"/></g><g transform="translate(-126,-30) scale(1,1)"><path fill="none" stroke="#000000" d="M 136 363 L 327 363" stroke-miterlimit="10"/></g><g transform="translate(-126,-30) scale(1,1)"><g><path fill="none" stroke="none"/><text fill="#000000" stroke="none" font-family="Arial" font-size="13px" font-style="normal" font-weight="bold" text-decoration="none" x="214.8818359375" y="259.5">Client</text></g></g><g transform="translate(-126,-30) scale(1,1)"><g><path fill="none" stroke="none"/><text fill="#000000" stroke="none" font-family="Arial" font-size="13px" font-style="normal" font-weight="normal" text-decoration="none" x="141" y="282.5">+idClient</text></g></g><g transform="translate(-126,-30) scale(1,1)"><g><path fill="none" stroke="none"/><text fill="#000000" stroke="none" font-family="Arial" font-size="13px" font-style="normal" font-weight="normal" text-decoration="none" x="141" y="297.5">+identifiant</text></g></g><g transform="translate(-126,-30) scale(1,1)"><g><path fill="none" stroke="none"/><text fill="#000000" stroke="none" font-family="Arial" font-size="13px" font-style="normal" font-weight="normal" text-decoration="none" x="141" y="312.5">+motDePasse</text></g></g><g transform="translate(-126,-30) scale(1,1)"><g><path fill="none" stroke="none"/><text fill="#000000" stroke="none" font-family="Arial" font-size="13px" font-style="normal" font-weight="normal" text-decoration="none" x="141" y="327.5">+nomClient</text></g></g><g transform="translate(-126,-30) scale(1,1)"><g><path fill="none" stroke="none"/><text fill="#000000" stroke="none" font-family="Arial" font-size="13px" font-style="normal" font-weight="normal" text-decoration="none" x="141" y="342.5">+prenomClient</text></g></g><g transform="translate(-126,-30) scale(1,1)"><g><path fill="none" stroke="none"/><text fill="#000000" stroke="none" font-family="Arial" font-size="13px" font-style="normal" font-weight="normal" text-decoration="none" x="141" y="357.5">+emailClient</text></g></g><g transform="translate(-126,-30) scale(1,1)"><rect fill="#C0C0C0" stroke="none" x="495" y="263" width="171" height="128" opacity="0.2"/></g><g transform="translate(-126,-30) scale(1,1)"><rect fill="#ffffff" stroke="none" x="488" y="256" width="171" height="128"/></g><g transform="translate(-126,-30) scale(1,1)"><path fill="none" stroke="#000000" d="M 488 256 L 659 256 L 659 384 L 488 384 L 488 256 Z Z" stroke-miterlimit="10"/></g><g transform="translate(-126,-30) scale(1,1)"><path fill="none" stroke="#000000" d="M 488 281 L 659 281" stroke-miterlimit="10"/></g><g transform="translate(-126,-30) scale(1,1)"><path fill="none" stroke="#000000" d="M 488 364 L 659 364" stroke-miterlimit="10"/></g><g transform="translate(-126,-30) scale(1,1)"><g><path fill="none" stroke="none"/><text fill="#000000" stroke="none" font-family="Arial" font-size="13px" font-style="normal" font-weight="bold" text-decoration="none" x="539.90185546875" y="275.5">Commande</text></g></g><g transform="translate(-126,-30) scale(1,1)"><g><path fill="none" stroke="none"/><text fill="#000000" stroke="none" font-family="Arial" font-size="13px" font-style="normal" font-weight="normal" text-decoration="none" x="493" y="298.5">+idCommande</text></g></g><g transform="translate(-126,-30) scale(1,1)"><g><path fill="none" stroke="none"/><text fill="#000000" stroke="none" font-family="Arial" font-size="13px" font-style="normal" font-weight="normal" text-decoration="none" x="493" y="313.5">+montantTotal</text></g></g><g transform="translate(-126,-30) scale(1,1)"><g><path fill="none" stroke="none"/><text fill="#000000" stroke="none" font-family="Arial" font-size="13px" font-style="normal" font-weight="normal" text-decoration="none" x="493" y="328.5">+dateCommande</text></g></g><g transform="translate(-126,-30) scale(1,1)"><g><path fill="none" stroke="none"/><text fill="#000000" stroke="none" font-family="Arial" font-size="13px" font-style="normal" font-weight="normal" text-decoration="none" x="493" y="343.5">+dateLivraison</text></g></g><g transform="translate(-126,-30) scale(1,1)"><g><path fill="none" stroke="none"/><text fill="#000000" stroke="none" font-family="Arial" font-size="13px" font-style="normal" font-weight="normal" text-decoration="none" x="493" y="358.5">+tempsEstime</text></g></g><g transform="translate(-126,-30) scale(1,1)"><path fill="none" stroke="#000000" d="M 328 315 L 487 318" stroke-miterlimit="10"/></g><g transform="translate(-126,-30) scale(1,1)"><g><path fill="none" stroke="none"/><text fill="#000000" stroke="none" font-family="Arial" font-size="13px" font-style="normal" font-weight="normal" text-decoration="none" x="345.726806640625" y="333.5">1</text></g></g><g transform="translate(-126,-30) scale(1,1)"><g><path fill="none" stroke="none"/><text fill="#000000" stroke="none" font-family="Arial" font-size="13px" font-style="normal" font-weight="normal" text-decoration="none" x="454.74365234375" y="336.5">0..*</text></g></g><g transform="translate(-126,-30) scale(1,1)"><rect fill="#C0C0C0" stroke="none" x="1207" y="351" width="154" height="128" opacity="0.2"/></g><g transform="translate(-126,-30) scale(1,1)"><rect fill="#ffffff" stroke="none" x="1200" y="344" width="154" height="128"/></g><g transform="translate(-126,-30) scale(1,1)"><path fill="none" stroke="#000000" d="M 1200 344 L 1354 344 L 1354 472 L 1200 472 L 1200 344 Z Z" stroke-miterlimit="10"/></g><g transform="translate(-126,-30) scale(1,1)"><path fill="none" stroke="#000000" d="M 1200 369 L 1354 369" stroke-miterlimit="10"/></g><g transform="translate(-126,-30) scale(1,1)"><path fill="none" stroke="#000000" d="M 1200 422 L 1354 422" stroke-miterlimit="10"/></g><g transform="translate(-126,-30) scale(1,1)"><g><path fill="none" stroke="none"/><text fill="#000000" stroke="none" font-family="Arial" font-size="13px" font-style="normal" font-weight="bold" text-decoration="none" x="1252.069580078125" y="363.5">ListePlat</text></g></g><g transform="translate(-126,-30) scale(1,1)"><g><path fill="none" stroke="none"/><text fill="#000000" stroke="none" font-family="Arial" font-size="13px" font-style="normal" font-weight="normal" text-decoration="none" x="1205" y="386.5">+idListePlatDessert</text></g></g><g transform="translate(-126,-30) scale(1,1)"><g><path fill="none" stroke="none"/><text fill="#000000" stroke="none" font-family="Arial" font-size="13px" font-style="normal" font-weight="normal" text-decoration="none" x="1205" y="401.5">+nomPlatDessert</text></g></g><g transform="translate(-126,-30) scale(1,1)"><g><path fill="none" stroke="none"/><text fill="#000000" stroke="none" font-family="Arial" font-size="13px" font-style="normal" font-weight="normal" text-decoration="none" x="1205" y="416.5">+prixPlatDessert</text></g></g><g transform="translate(-126,-30) scale(1,1)"><rect fill="#C0C0C0" stroke="none" x="503" y="47" width="152" height="120" opacity="0.2"/></g><g transform="translate(-126,-30) scale(1,1)"><rect fill="#ffffff" stroke="none" x="496" y="40" width="152" height="120"/></g><g transform="translate(-126,-30) scale(1,1)"><path fill="none" stroke="#000000" d="M 496 40 L 648 40 L 648 160 L 496 160 L 496 40 Z Z" stroke-miterlimit="10"/></g><g transform="translate(-126,-30) scale(1,1)"><path fill="none" stroke="#000000" d="M 496 65 L 648 65" stroke-miterlimit="10"/></g><g transform="translate(-126,-30) scale(1,1)"><path fill="none" stroke="#000000" d="M 496 148 L 648 148" stroke-miterlimit="10"/></g><g transform="translate(-126,-30) scale(1,1)"><g><path fill="none" stroke="none"/><text fill="#000000" stroke="none" font-family="Arial" font-size="13px" font-style="normal" font-weight="bold" text-decoration="none" x="522.142333984375" y="59.5">AdresseLivraison</text></g></g><g transform="translate(-126,-30) scale(1,1)"><g><path fill="none" stroke="none"/><text fill="#000000" stroke="none" font-family="Arial" font-size="13px" font-style="normal" font-weight="normal" text-decoration="none" x="501" y="82.5">+idAdresse</text></g></g><g transform="translate(-126,-30) scale(1,1)"><g><path fill="none" stroke="none"/><text fill="#000000" stroke="none" font-family="Arial" font-size="13px" font-style="normal" font-weight="normal" text-decoration="none" x="501" y="97.5">+telephone</text></g></g><g transform="translate(-126,-30) scale(1,1)"><g><path fill="none" stroke="none"/><text fill="#000000" stroke="none" font-family="Arial" font-size="13px" font-style="normal" font-weight="normal" text-decoration="none" x="501" y="112.5">+adresse</text></g></g><g transform="translate(-126,-30) scale(1,1)"><g><path fill="none" stroke="none"/><text fill="#000000" stroke="none" font-family="Arial" font-size="13px" font-style="normal" font-weight="normal" text-decoration="none" x="501" y="127.5">+ville</text></g></g><g transform="translate(-126,-30) scale(1,1)"><g><path fill="none" stroke="none"/><text fill="#000000" stroke="none" font-family="Arial" font-size="13px" font-style="normal" font-weight="normal" text-decoration="none" x="501" y="142.5">+codePostal</text></g></g><g transform="translate(-126,-30) scale(1,1)"><rect fill="#C0C0C0" stroke="none" x="503" y="487" width="152" height="117" opacity="0.2"/></g><g transform="translate(-126,-30) scale(1,1)"><rect fill="#ffffff" stroke="none" x="496" y="480" width="152" height="117"/></g><g transform="translate(-126,-30) scale(1,1)"><path fill="none" stroke="#000000" d="M 496 480 L 648 480 L 648 597 L 496 597 L 496 480 Z Z" stroke-miterlimit="10"/></g><g transform="translate(-126,-30) scale(1,1)"><path fill="none" stroke="#000000" d="M 496 505 L 648 505" stroke-miterlimit="10"/></g><g transform="translate(-126,-30) scale(1,1)"><path fill="none" stroke="#000000" d="M 496 588 L 648 588" stroke-miterlimit="10"/></g><g transform="translate(-126,-30) scale(1,1)"><g><path fill="none" stroke="none"/><text fill="#000000" stroke="none" font-family="Arial" font-size="13px" font-style="normal" font-weight="bold" text-decoration="none" x="552.1318359375" y="499.5">Livreur</text></g></g><g transform="translate(-126,-30) scale(1,1)"><g><path fill="none" stroke="none"/><text fill="#000000" stroke="none" font-family="Arial" font-size="13px" font-style="normal" font-weight="normal" text-decoration="none" x="501" y="522.5">+idLivreur</text></g></g><g transform="translate(-126,-30) scale(1,1)"><g><path fill="none" stroke="none"/><text fill="#000000" stroke="none" font-family="Arial" font-size="13px" font-style="normal" font-weight="normal" text-decoration="none" x="501" y="537.5">+identifiantLivreur</text></g></g><g transform="translate(-126,-30) scale(1,1)"><g><path fill="none" stroke="none"/><text fill="#000000" stroke="none" font-family="Arial" font-size="13px" font-style="normal" font-weight="normal" text-decoration="none" x="501" y="552.5">+motDePasseLivreur</text></g></g><g transform="translate(-126,-30) scale(1,1)"><g><path fill="none" stroke="none"/><text fill="#000000" stroke="none" font-family="Arial" font-size="13px" font-style="normal" font-weight="normal" text-decoration="none" x="501" y="567.5">+nomLivreur</text></g></g><g transform="translate(-126,-30) scale(1,1)"><g><path fill="none" stroke="none"/><text fill="#000000" stroke="none" font-family="Arial" font-size="13px" font-style="normal" font-weight="normal" text-decoration="none" x="501" y="582.5">+prenomLivreur</text></g></g><g transform="translate(-126,-30) scale(1,1)"><path fill="none" stroke="#000000" d="M 573 385 L 572 479" stroke-miterlimit="10"/></g><g transform="translate(-126,-30) scale(1,1)"><g><path fill="none" stroke="none"/><text fill="#000000" stroke="none" font-family="Arial" font-size="13px" font-style="normal" font-weight="normal" text-decoration="none" x="549.74365234375" y="412.5">0..*</text></g></g><g transform="translate(-126,-30) scale(1,1)"><g><path fill="none" stroke="none"/><text fill="#000000" stroke="none" font-family="Arial" font-size="13px" font-style="normal" font-weight="normal" text-decoration="none" x="555.641357421875" y="463.5">1</text></g></g><g transform="translate(-126,-30) scale(1,1)"><rect fill="#C0C0C0" stroke="none" x="495" y="711" width="160" height="102" opacity="0.2"/></g><g transform="translate(-126,-30) scale(1,1)"><rect fill="#ffffff" stroke="none" x="488" y="704" width="160" height="102"/></g><g transform="translate(-126,-30) scale(1,1)"><path fill="none" stroke="#000000" d="M 488 704 L 648 704 L 648 806 L 488 806 L 488 704 Z Z" stroke-miterlimit="10"/></g><g transform="translate(-126,-30) scale(1,1)"><path fill="none" stroke="#000000" d="M 488 729 L 648 729" stroke-miterlimit="10"/></g><g transform="translate(-126,-30) scale(1,1)"><path fill="none" stroke="#000000" d="M 488 797 L 648 797" stroke-miterlimit="10"/></g><g transform="translate(-126,-30) scale(1,1)"><g><path fill="none" stroke="none"/><text fill="#000000" stroke="none" font-family="Arial" font-size="13px" font-style="normal" font-weight="bold" text-decoration="none" x="531.148681640625" y="723.5">StatutLivreur</text></g></g><g transform="translate(-126,-30) scale(1,1)"><g><path fill="none" stroke="none"/><text fill="#000000" stroke="none" font-family="Arial" font-size="13px" font-style="normal" font-weight="normal" text-decoration="none" x="493" y="746.5">+idStatut</text></g></g><g transform="translate(-126,-30) scale(1,1)"><g><path fill="none" stroke="none"/><text fill="#000000" stroke="none" font-family="Arial" font-size="13px" font-style="normal" font-weight="normal" text-decoration="none" x="493" y="761.5">+libre</text></g></g><g transform="translate(-126,-30) scale(1,1)"><g><path fill="none" stroke="none"/><text fill="#000000" stroke="none" font-family="Arial" font-size="13px" font-style="normal" font-weight="normal" text-decoration="none" x="493" y="776.5">+livraison</text></g></g><g transform="translate(-126,-30) scale(1,1)"><g><path fill="none" stroke="none"/><text fill="#000000" stroke="none" font-family="Arial" font-size="13px" font-style="normal" font-weight="normal" text-decoration="none" x="493" y="791.5">+position</text></g></g><g transform="translate(-126,-30) scale(1,1)"><path fill="none" stroke="#000000" d="M 571 598 L 569 703" stroke-miterlimit="10"/></g><g transform="translate(-126,-30) scale(1,1)"><g><path fill="none" stroke="none"/><text fill="#000000" stroke="none" font-family="Arial" font-size="13px" font-style="normal" font-weight="normal" text-decoration="none" x="547.74365234375" y="625.5">1..*</text></g></g><g transform="translate(-126,-30) scale(1,1)"><g><path fill="none" stroke="none"/><text fill="#000000" stroke="none" font-family="Arial" font-size="13px" font-style="normal" font-weight="normal" text-decoration="none" x="551.885009765625" y="687.5">1</text></g></g><g transform="translate(-126,-30) scale(1,1)"><rect fill="#C0C0C0" stroke="none" x="911" y="351" width="168.31982421875" height="132" opacity="0.2"/></g><g transform="translate(-126,-30) scale(1,1)"><rect fill="#ffffff" stroke="none" x="904" y="344" width="168.31982421875" height="132"/></g><g transform="translate(-126,-30) scale(1,1)"><path fill="none" stroke="#000000" d="M 904 344 L 1072.31982421875 344 L 1072.31982421875 476 L 904 476 L 904 344 Z Z" stroke-miterlimit="10"/></g><g transform="translate(-126,-30) scale(1,1)"><path fill="none" stroke="#000000" d="M 904 369 L 1072.31982421875 369" stroke-miterlimit="10"/></g><g transform="translate(-126,-30) scale(1,1)"><path fill="none" stroke="#000000" d="M 904 407 L 1072.31982421875 407" stroke-miterlimit="10"/></g><g transform="translate(-126,-30) scale(1,1)"><g><path fill="none" stroke="none"/><text fill="#000000" stroke="none" font-family="Arial" font-size="13px" font-style="normal" font-weight="bold" text-decoration="none" x="948.417236328125" y="363.5">RepasDuJour</text></g></g><g transform="translate(-126,-30) scale(1,1)"><g><path fill="none" stroke="none"/><text fill="#000000" stroke="none" font-family="Arial" font-size="13px" font-style="normal" font-weight="normal" text-decoration="none" x="909" y="386.5">+idRepas</text></g></g><g transform="translate(-126,-30) scale(1,1)"><g><path fill="none" stroke="none"/><text fill="#000000" stroke="none" font-family="Arial" font-size="13px" font-style="normal" font-weight="normal" text-decoration="none" x="909" y="401.5">+date</text></g></g><g transform="translate(-126,-30) scale(1,1)"><path fill="none" stroke="#000000" d="M 660 339 L 903 392" stroke-miterlimit="10"/></g><g transform="translate(-126,-30) scale(1,1)"><g><path fill="none" stroke="none"/><text fill="#000000" stroke="none" font-family="Arial" font-size="13px" font-style="normal" font-weight="normal" text-decoration="none" x="667.74365234375" y="361.5">0..*</text></g></g><g transform="translate(-126,-30) scale(1,1)"><g><path fill="none" stroke="none"/><text fill="#000000" stroke="none" font-family="Arial" font-size="13px" font-style="normal" font-weight="normal" text-decoration="none" x="868.74365234375" y="405.5">1..*</text></g></g><g transform="translate(-126,-30) scale(1,1)"><path fill="none" stroke="#000000" d="M 573 255 L 572 161" stroke-miterlimit="10"/></g><g transform="translate(-126,-30) scale(1,1)"><g><path fill="none" stroke="none"/><text fill="#000000" stroke="none" font-family="Arial" font-size="13px" font-style="normal" font-weight="normal" text-decoration="none" x="574.74365234375" y="239.5">0..*</text></g></g><g transform="translate(-126,-30) scale(1,1)"><g><path fill="none" stroke="none"/><text fill="#000000" stroke="none" font-family="Arial" font-size="13px" font-style="normal" font-weight="normal" text-decoration="none" x="580.641357421875" y="188.5">1</text></g></g><g transform="translate(-126,-30) scale(1,1)"><path fill="none" stroke="#000000" d="M 1073 409 L 1199 409" stroke-miterlimit="10"/></g><g transform="translate(-126,-30) scale(1,1)"><path fill="#FFFFFF" stroke="none" d="M 1188.837325142376 413.209517756016 L 1199 409 L 1188.837325142376 404.790482243984 L 1177 409"/></g><g transform="translate(-126,-30) scale(1,1)"><path fill="none" stroke="#000000" d="M 1188.837325142376 413.209517756016 L 1199 409 L 1188.837325142376 404.790482243984 L 1177 409 L 1188.837325142376 413.209517756016" stroke-miterlimit="10"/></g><g transform="translate(-126,-30) scale(1,1)"><g><path fill="none" stroke="none"/><text fill="#000000" stroke="none" font-family="Arial" font-size="13px" font-style="normal" font-weight="normal" text-decoration="none" x="1083.74365234375" y="427.5">1..*</text></g></g><g transform="translate(-126,-30) scale(1,1)"><g><path fill="none" stroke="none"/><text fill="#000000" stroke="none" font-family="Arial" font-size="13px" font-style="normal" font-weight="normal" text-decoration="none" x="1172.885009765625" y="427.5">1</text></g></g><g transform="translate(-126,-30) scale(1,1)"><rect fill="#C0C0C0" stroke="none" x="719" y="199" width="144.07177734375" height="57" opacity="0.2"/></g><g transform="translate(-126,-30) scale(1,1)"><rect fill="#ffffff" stroke="none" x="712" y="192" width="144.07177734375" height="57"/></g><g transform="translate(-126,-30) scale(1,1)"><path fill="none" stroke="#000000" d="M 712 192 L 856.07177734375 192 L 856.07177734375 249 L 712 249 L 712 192 Z Z" stroke-miterlimit="10"/></g><g transform="translate(-126,-30) scale(1,1)"><path fill="none" stroke="#000000" d="M 712 217 L 856.07177734375 217" stroke-miterlimit="10"/></g><g transform="translate(-126,-30) scale(1,1)"><path fill="none" stroke="#000000" d="M 712 240 L 856.07177734375 240" stroke-miterlimit="10"/></g><g transform="translate(-126,-30) scale(1,1)"><g><path fill="none" stroke="none"/><text fill="#000000" stroke="none" font-family="Arial" font-size="13px" font-style="normal" font-weight="bold" text-decoration="none" x="721.175048828125" y="211.5">HistoriqueCommande</text></g></g><g transform="translate(-126,-30) scale(1,1)"><g><path fill="none" stroke="none"/><text fill="#000000" stroke="none" font-family="Arial" font-size="13px" font-style="normal" font-weight="normal" text-decoration="none" x="717" y="234.5">+quantiteCommande</text></g></g><g transform="translate(-126,-30) scale(1,1)"><path fill="none" stroke="#000000" d="M 783 250 L 781 365" stroke-miterlimit="10" stroke-dasharray="3"/></g><g transform="translate(-126,-30) scale(1,1)"><path fill="none" stroke="#000000" d="M 649 514 L 903 436" stroke-miterlimit="10"/></g><g transform="translate(-126,-30) scale(1,1)"><g><path fill="none" stroke="none"/><text fill="#000000" stroke="none" font-family="Arial" font-size="13px" font-style="normal" font-weight="normal" text-decoration="none" x="663.5" y="525.5">1..*</text></g></g><g transform="translate(-126,-30) scale(1,1)"><g><path fill="none" stroke="none"/><text fill="#000000" stroke="none" font-family="Arial" font-size="13px" font-style="normal" font-weight="normal" text-decoration="none" x="875.5" y="460.5">0..*</text></g></g><g transform="translate(-126,-30) scale(1,1)"><rect fill="#C0C0C0" stroke="none" x="719" y="591" width="124.603515625" height="57" opacity="0.2"/></g><g transform="translate(-126,-30) scale(1,1)"><rect fill="#ffffff" stroke="none" x="712" y="584" width="124.603515625" height="57"/></g><g transform="translate(-126,-30) scale(1,1)"><path fill="none" stroke="#000000" d="M 712 584 L 836.603515625 584 L 836.603515625 641 L 712 641 L 712 584 Z Z" stroke-miterlimit="10"/></g><g transform="translate(-126,-30) scale(1,1)"><path fill="none" stroke="#000000" d="M 712 609 L 836.603515625 609" stroke-miterlimit="10"/></g><g transform="translate(-126,-30) scale(1,1)"><path fill="none" stroke="#000000" d="M 712 632 L 836.603515625 632" stroke-miterlimit="10"/></g><g transform="translate(-126,-30) scale(1,1)"><g><path fill="none" stroke="none"/><text fill="#000000" stroke="none" font-family="Arial" font-size="13px" font-style="normal" font-weight="bold" text-decoration="none" x="739.25634765625" y="603.5">StockRepas</text></g></g><g transform="translate(-126,-30) scale(1,1)"><g><path fill="none" stroke="none"/><text fill="#000000" stroke="none" font-family="Arial" font-size="13px" font-style="normal" font-weight="normal" text-decoration="none" x="717" y="626.5">+quantiteStock</text></g></g><g transform="translate(-126,-30) scale(1,1)"><path fill="none" stroke="#000000" d="M 649 514 L 903 436" stroke-miterlimit="10"/></g><g transform="translate(-126,-30) scale(1,1)"><path fill="none" stroke="#000000" d="M 774 583 L 776 475" stroke-miterlimit="10" stroke-dasharray="3"/></g><g transform="translate(-126,-30) scale(1,1)"><rect fill="#C0C0C0" stroke="none" x="1215" y="575" width="143" height="87" opacity="0.2"/></g><g transform="translate(-126,-30) scale(1,1)"><rect fill="#ffffff" stroke="none" x="1208" y="568" width="143" height="87"/></g><g transform="translate(-126,-30) scale(1,1)"><path fill="none" stroke="#000000" d="M 1208 568 L 1351 568 L 1351 655 L 1208 655 L 1208 568 Z Z" stroke-miterlimit="10"/></g><g transform="translate(-126,-30) scale(1,1)"><path fill="none" stroke="#000000" d="M 1208 593 L 1351 593" stroke-miterlimit="10"/></g><g transform="translate(-126,-30) scale(1,1)"><path fill="none" stroke="#000000" d="M 1208 631 L 1351 631" stroke-miterlimit="10"/></g><g transform="translate(-126,-30) scale(1,1)"><g><path fill="none" stroke="none"/><text fill="#000000" stroke="none" font-family="Arial" font-size="13px" font-style="normal" font-weight="bold" text-decoration="none" x="1240.115966796875" y="587.5">CategoriePlat</text></g></g><g transform="translate(-126,-30) scale(1,1)"><g><path fill="none" stroke="none"/><text fill="#000000" stroke="none" font-family="Arial" font-size="13px" font-style="normal" font-weight="normal" text-decoration="none" x="1213" y="610.5">+Plat</text></g></g><g transform="translate(-126,-30) scale(1,1)"><g><path fill="none" stroke="none"/><text fill="#000000" stroke="none" font-family="Arial" font-size="13px" font-style="normal" font-weight="normal" text-decoration="none" x="1213" y="625.5">+Dessert</text></g></g><g transform="translate(-126,-30) scale(1,1)"><path fill="none" stroke="#000000" d="M 1278 473 L 1279 567" stroke-miterlimit="10"/></g><g transform="translate(-126,-30) scale(1,1)"><g><path fill="none" stroke="none"/><text fill="#000000" stroke="none" font-family="Arial" font-size="13px" font-style="normal" font-weight="normal" text-decoration="none" x="1255.5" y="500.5">1..*</text></g></g><g transform="translate(-126,-30) scale(1,1)"><g><path fill="none" stroke="none"/><text fill="#000000" stroke="none" font-family="Arial" font-size="13px" font-style="normal" font-weight="normal" text-decoration="none" x="1262.5" y="551.5">1</text></g></g></g></svg>